<svg width="672" height="213" viewBox="0 0 672 213" fill="none" xmlns="http://www.w3.org/2000/svg">
<path d="M0 212.6L9.12 170.14H203.03L242.38 0H336.98L342.4 146.48L405.47 0.68H501.42L466.84 212.6H403.09L429.2 65.44L366.81 209.54H294.59L288.15 63.41L256.28 212.6H0Z" fill="#8FFFFF"/>
<path d="M509.07 0.679993H671.14L660.97 54.25H564.68L558.58 84.77H637.24L627.07 137.66H548.41L533.83 212.59H468.04L509.07 0.679993Z" fill="#8FFFFF"/>
<path d="M232.04 44.7H36.2101L27.0801 87.15H222.22L232.04 44.7Z" fill="#F5628D"/>
<path d="M222.33 86.68H27.1901L18.0601 129.14H212.51L222.33 86.68Z" fill="#FF9D00"/>
<path d="M203.03 170.14L212.69 128.36H18.23L9.25 170.14H203.03Z" fill="#FAD000"/>
</svg>
