<?xml version="1.0" standalone="no"?>
<!DOCTYPE svg PUBLIC "-//W3C//DTD SVG 20010904//EN"
 "http://www.w3.org/TR/2001/REC-SVG-20010904/DTD/svg10.dtd">
<svg version="1.0" xmlns="http://www.w3.org/2000/svg"
 width="2828.000000pt" height="2828.000000pt" viewBox="0 0 2828.000000 2828.000000"
 preserveAspectRatio="xMidYMid meet">
<metadata>
Created by potrace 1.11, written by Peter Selinger 2001-2013
</metadata>
<g transform="translate(0.000000,2828.000000) scale(0.100000,-0.100000)"
fill="#000000" stroke="none">
<path d="M10834 18420 c-20 -4 -30 -12 -31 -25 -1 -11 -7 -38 -13 -60 -6 -22
-13 -53 -16 -70 -3 -16 -7 -37 -10 -45 -3 -8 -8 -25 -10 -38 -3 -13 -18 -83
-35 -155 -17 -73 -32 -136 -33 -142 -1 -5 -10 -46 -20 -90 -10 -44 -21 -91
-26 -105 -5 -14 -11 -38 -14 -55 -3 -16 -19 -88 -36 -160 -16 -71 -37 -161
-46 -200 -8 -38 -18 -79 -20 -90 -3 -11 -7 -31 -10 -45 -3 -14 -7 -32 -9 -40
-2 -8 -4 -17 -5 -20 -1 -3 -2 -8 -1 -12 0 -4 -4 -19 -9 -33 -5 -14 -12 -40
-15 -58 -3 -18 -10 -48 -15 -67 -5 -19 -11 -46 -14 -60 -6 -26 -22 -98 -32
-140 -10 -43 -12 -55 -13 -66 -1 -7 -1189 -10 -3918 -10 l-3918 0 -13 -49 c-7
-28 -15 -65 -18 -84 -3 -18 -8 -43 -11 -55 -3 -11 -13 -59 -22 -106 -10 -47
-21 -94 -24 -105 -3 -11 -8 -31 -11 -45 -2 -14 -7 -36 -10 -50 -7 -29 -14 -66
-26 -130 -5 -25 -14 -65 -20 -90 -12 -48 -16 -65 -26 -120 -9 -51 -12 -65 -14
-65 -1 0 -3 -9 -5 -20 -2 -11 -16 -73 -30 -138 -14 -65 -28 -134 -31 -155 -3
-20 -8 -40 -11 -44 -4 -9 -12 -41 -17 -73 -2 -11 -6 -33 -10 -50 -3 -16 -8
-39 -10 -50 -2 -11 -18 -83 -35 -160 -17 -77 -32 -152 -35 -168 -3 -15 -7 -35
-10 -45 -3 -9 -7 -28 -10 -42 -3 -14 -8 -36 -11 -50 -3 -14 -8 -38 -11 -55 -3
-16 -9 -48 -15 -70 -5 -22 -12 -51 -14 -65 -3 -14 -8 -36 -11 -50 -8 -33 -13
-58 -19 -93 -3 -16 -14 -66 -25 -112 -11 -46 -22 -98 -25 -117 -3 -18 -8 -40
-10 -48 -2 -8 -6 -26 -9 -40 -3 -14 -7 -34 -10 -45 -2 -11 -17 -76 -31 -145
-15 -69 -28 -129 -29 -135 -4 -16 -17 -78 -21 -100 -2 -11 -4 -20 -5 -20 -1 0
-3 -11 -6 -25 -2 -14 -11 -56 -20 -95 -8 -38 -17 -81 -20 -95 -2 -14 -10 -52
-19 -85 -8 -33 -17 -73 -19 -90 -3 -16 -10 -52 -16 -80 -7 -27 -14 -61 -16
-74 -3 -13 -11 -50 -19 -83 -7 -32 -14 -61 -14 -63 -1 -3 -1 -6 -2 -7 0 -2 -2
-12 -4 -23 -2 -11 -6 -31 -9 -45 -14 -59 -17 -76 -20 -95 -2 -11 -6 -29 -9
-40 -3 -11 -9 -36 -13 -55 -8 -45 -12 -65 -14 -65 -1 0 -3 -9 -5 -20 -3 -22
-8 -46 -24 -115 -5 -25 -12 -56 -15 -70 -2 -14 -9 -47 -16 -75 -6 -27 -13 -61
-16 -75 -2 -14 -11 -56 -20 -95 -8 -38 -17 -79 -20 -90 -2 -11 -8 -42 -14 -70
-6 -27 -13 -61 -16 -75 -3 -14 -7 -36 -10 -50 -3 -14 -9 -41 -14 -60 -12 -47
-22 -100 -25 -127 -1 -13 -5 -26 -8 -30 -4 -3 -7 -16 -7 -28 0 -11 -5 -26 -12
-33 -7 -7 -9 -12 -6 -12 3 0 -1 -26 -9 -57 -8 -32 -16 -71 -19 -88 -3 -16 -12
-61 -21 -100 -8 -38 -16 -79 -19 -90 -2 -11 -7 -31 -10 -45 -3 -14 -7 -32 -8
-40 -1 -9 -5 -21 -10 -28 -4 -6 -5 -12 -2 -12 2 0 -2 -27 -10 -60 -7 -32 -16
-74 -19 -91 -3 -18 -8 -36 -10 -40 -3 -4 -7 -26 -10 -49 -3 -24 -8 -46 -10
-50 -2 -4 -7 -22 -10 -41 -3 -19 -15 -74 -26 -122 -10 -48 -22 -105 -25 -125
-3 -20 -8 -40 -10 -43 -2 -3 -6 -20 -9 -37 -3 -18 -12 -60 -20 -94 -8 -35 -16
-74 -19 -88 -3 -14 -7 -36 -10 -50 -3 -14 -10 -47 -16 -75 -18 -88 -23 -112
-44 -198 -11 -47 -11 -57 -1 -53 7 2 16 2 19 -1 3 -4 2303 -7 5111 -7 l5105
-1 9 30 c5 17 12 44 15 60 4 17 9 41 12 55 3 14 7 35 9 47 2 11 6 30 9 41 8
25 15 55 22 102 3 19 7 42 10 50 3 7 16 68 30 135 14 66 28 129 31 140 2 11 6
29 8 40 6 35 16 78 30 143 8 34 17 74 20 90 3 15 7 38 10 52 3 14 8 36 11 50
5 23 31 143 40 185 2 11 7 33 10 49 2 16 6 32 8 35 2 3 7 23 10 43 3 20 15 77
25 125 11 48 22 99 25 113 6 29 11 56 28 130 15 69 13 59 21 100 4 19 10 46
13 60 11 51 17 86 18 105 1 11 3 22 6 25 3 3 13 43 23 90 9 47 19 94 21 105 3
11 10 43 16 70 6 28 14 59 16 70 2 11 6 31 9 45 3 14 8 36 10 50 2 14 7 36 10
50 6 21 16 69 41 190 3 14 7 34 8 45 1 12 5 26 9 32 4 6 9 26 11 44 3 19 10
57 16 84 7 28 14 64 17 80 7 42 11 60 13 60 2 0 5 17 13 60 3 17 13 64 22 105
9 41 19 84 20 95 2 11 6 29 9 40 16 69 26 114 31 145 3 19 8 43 11 52 5 18 11
46 19 93 3 17 12 57 20 90 8 33 17 72 20 88 8 45 15 77 37 177 11 52 22 106
24 120 3 14 7 33 10 42 6 21 14 57 20 88 4 24 6 32 19 95 3 17 8 36 11 44 2 8
7 30 10 50 8 45 12 66 14 66 2 0 5 14 13 60 9 46 17 86 28 135 6 25 13 56 15
70 3 14 10 45 15 70 6 25 13 54 15 65 2 11 6 31 9 45 3 14 13 57 21 95 19 92
23 112 34 159 5 22 7 44 4 48 -3 4 -1 8 3 8 5 0 9 8 10 18 2 23 7 50 33 162
11 52 23 113 26 134 3 22 8 44 10 48 3 5 7 18 10 31 6 33 11 55 28 132 9 39
18 84 21 100 5 37 22 102 25 95 2 -6 6 -86 14 -300 11 -254 25 -551 31 -643 2
-41 0 -55 -8 -50 -9 5 -9 3 -1 -8 6 -8 13 -48 14 -89 1 -41 4 -100 5 -130 4
-92 17 -390 20 -475 2 -44 4 -80 5 -80 0 0 3 -52 5 -115 2 -63 7 -164 10 -225
3 -60 7 -164 10 -230 7 -161 15 -341 20 -445 2 -47 6 -146 9 -220 3 -74 9
-198 12 -275 4 -77 7 -175 8 -217 0 -43 3 -78 6 -78 3 0 5 -39 6 -88 1 -95 11
-366 19 -502 3 -47 7 -141 10 -210 3 -69 6 -139 7 -155 1 -17 -1 -36 -6 -43
-4 -7 -3 -12 2 -12 5 0 9 -29 8 -65 -1 -36 3 -65 7 -65 4 0 3 -8 -2 -19 -6
-10 -7 -21 -4 -25 4 -4 8 -39 9 -79 1 -40 5 -146 9 -237 4 -91 9 -196 10 -235
2 -38 3 -70 4 -70 1 0 4 -65 7 -145 9 -277 12 -299 34 -285 5 3 11 1 15 -5 4
-7 12 -7 25 0 13 7 21 7 25 0 4 -6 13 -7 23 -1 11 6 24 6 34 0 11 -6 19 -6 23
1 4 6 11 8 16 4 17 -10 59 -12 65 -3 3 5 14 4 25 -1 12 -7 19 -7 19 -1 0 7 8
7 23 2 12 -5 31 -5 42 -1 11 4 25 3 32 -2 7 -5 14 -5 18 2 4 7 12 7 26 0 12
-7 19 -7 19 -1 0 7 8 7 24 1 13 -5 26 -7 29 -4 8 8 87 10 87 2 0 -3 14 -3 30
2 19 5 30 5 30 -1 0 -6 7 -6 19 0 10 6 21 8 24 5 9 -9 197 -10 197 -2 0 4 11
3 25 -2 16 -6 25 -6 25 0 0 5 9 6 22 1 13 -4 35 -5 50 0 16 4 30 3 34 -2 4 -7
10 -6 18 0 7 6 17 6 26 1 8 -5 21 -5 31 0 9 5 19 6 23 3 8 -9 66 -10 66 -1 0
4 10 4 23 -1 12 -5 31 -5 42 -1 11 4 25 3 32 -2 7 -5 14 -5 18 2 4 7 12 7 26
0 12 -7 19 -7 19 -1 0 7 8 7 23 2 12 -5 32 -5 45 0 14 5 22 5 22 -2 0 -6 5 -7
11 -4 15 10 80 12 85 3 3 -4 16 -3 29 2 16 6 25 6 25 -1 0 -6 6 -6 18 0 11 6
24 6 35 0 11 -7 17 -7 17 0 0 7 8 7 25 1 16 -6 25 -6 25 0 0 6 9 6 25 0 14 -5
25 -6 25 -2 0 4 18 7 40 7 22 0 40 -3 40 -7 0 -4 11 -3 25 2 16 6 25 6 25 -1
0 -6 7 -6 19 1 13 7 22 7 26 0 4 -7 12 -7 25 0 13 7 21 7 25 0 4 -6 13 -7 24
-1 10 6 23 6 31 1 8 -5 21 -5 31 1 10 5 20 5 23 1 6 -10 42 -9 52 1 4 3 15 2
25 -4 13 -6 19 -6 19 0 0 7 8 7 23 2 12 -5 31 -5 42 -1 11 4 25 3 32 -2 7 -5
14 -5 18 2 4 7 12 7 26 0 12 -7 19 -7 19 -1 0 7 8 7 24 1 13 -5 26 -7 29 -4 9
9 62 11 85 2 13 -4 22 -4 22 2 0 6 9 6 25 0 15 -6 25 -6 25 0 0 5 12 5 30 0
18 -5 32 -5 35 1 4 5 14 5 25 -1 13 -7 21 -7 25 0 4 7 12 7 25 0 10 -6 21 -6
24 -2 5 9 59 8 75 -2 5 -4 12 -2 16 4 4 7 13 7 26 0 17 -10 23 -3 54 66 19 42
35 82 35 89 0 7 7 18 15 25 9 7 13 15 11 18 -3 3 1 17 8 31 7 14 18 37 24 51
5 14 22 52 38 85 15 33 28 62 29 65 1 9 65 158 95 223 16 36 30 68 30 70 0 3
13 34 29 69 16 35 48 108 71 163 23 55 50 118 60 140 55 121 68 154 62 159 -3
3 0 6 6 6 7 0 12 9 12 20 0 11 5 20 10 20 6 0 9 3 8 8 -1 7 12 42 37 97 37 80
95 220 95 228 0 6 7 18 15 27 8 9 16 25 18 37 1 12 8 28 15 35 6 8 9 18 5 21
-3 4 -2 7 3 7 5 0 10 10 11 21 1 12 9 29 17 38 9 10 16 23 16 29 0 6 16 45 35
88 19 42 35 83 35 90 0 8 5 14 10 14 6 0 10 6 10 14 0 8 14 45 30 82 41 91 60
133 75 169 7 17 27 64 45 105 18 41 41 95 52 120 10 25 26 57 34 72 8 15 14
29 14 30 -2 4 14 45 41 103 12 28 23 52 23 55 1 3 14 31 29 64 15 32 27 64 27
70 0 7 4 16 9 22 5 5 21 38 36 74 14 36 33 79 40 96 18 39 85 193 95 219 4 11
7 23 6 26 0 3 4 12 10 20 7 8 27 50 45 94 18 44 35 82 38 85 3 3 7 12 9 20 2
8 17 44 34 80 17 36 31 70 33 75 1 6 11 31 23 58 12 26 21 48 21 50 0 1 16 38
36 82 20 44 68 154 107 245 39 91 82 190 96 220 15 30 27 60 28 65 1 6 15 37
30 70 15 33 28 65 30 70 1 6 15 39 32 75 29 66 44 101 46 110 1 3 6 12 11 20
5 8 10 20 11 25 1 6 13 33 25 60 13 28 23 52 24 55 0 3 5 12 10 20 5 8 10 20
11 25 1 6 11 31 22 55 10 25 32 74 48 110 15 36 33 68 39 72 5 4 7 8 3 8 -7 0
5 34 49 130 27 61 32 73 63 145 12 28 27 64 35 80 7 17 23 55 36 85 25 63 41
85 34 49 -3 -13 -8 -40 -11 -59 -3 -19 -9 -53 -14 -75 -4 -22 -8 -47 -8 -55
-1 -8 -5 -33 -11 -55 -5 -22 -13 -60 -16 -85 -4 -25 -9 -56 -11 -70 -2 -14 -6
-36 -8 -50 -3 -14 -7 -34 -9 -45 -5 -19 -17 -89 -23 -130 -3 -20 -10 -56 -20
-105 -3 -14 -7 -41 -8 -61 -2 -20 -6 -40 -9 -45 -2 -5 -8 -31 -11 -58 -4 -27
-9 -52 -10 -55 -2 -3 -7 -28 -10 -56 -4 -27 -9 -57 -11 -65 -5 -19 -16 -77
-20 -110 -2 -14 -8 -47 -13 -75 -6 -27 -8 -53 -6 -57 3 -5 1 -8 -3 -8 -5 0 -9
-8 -9 -17 -1 -20 -11 -95 -19 -133 -3 -14 -8 -38 -10 -55 -10 -54 -34 -189
-40 -220 -3 -16 -8 -41 -10 -55 -2 -14 -6 -35 -9 -47 -2 -11 -8 -43 -12 -70
-9 -54 -11 -62 -14 -65 -1 -2 -3 -16 -5 -33 -3 -27 -10 -74 -21 -129 -5 -27
-51 -290 -59 -333 -3 -18 -7 -48 -10 -65 -3 -18 -8 -40 -10 -48 -2 -8 -6 -31
-9 -50 -3 -19 -8 -48 -12 -65 -8 -44 -23 -125 -29 -160 -10 -65 -15 -94 -36
-205 -5 -30 -12 -73 -15 -95 -3 -22 -8 -47 -11 -55 -2 -8 -7 -31 -9 -50 -6
-42 -12 -75 -14 -75 -1 0 -4 -13 -5 -30 -2 -16 -6 -43 -9 -60 -3 -16 -13 -68
-21 -115 -8 -47 -17 -95 -19 -106 -2 -12 -7 -37 -10 -55 -3 -19 -8 -45 -11
-59 -5 -25 -15 -89 -21 -125 -1 -11 -3 -20 -4 -20 -1 0 -3 -9 -4 -20 -6 -39
-16 -100 -26 -150 -6 -27 -12 -66 -14 -85 -3 -19 -5 -35 -6 -35 -2 0 -10 -38
-14 -70 -3 -16 -11 -65 -20 -109 -9 -43 -13 -82 -11 -87 3 -4 2 -10 -3 -13 -4
-2 -9 -17 -10 -33 -4 -41 -7 -57 -14 -69 -4 -5 -5 -19 -4 -30 2 -10 1 -23 -2
-29 -3 -5 -7 -22 -9 -39 -2 -16 -5 -41 -8 -55 -10 -49 -47 -256 -50 -276 -1
-11 -3 -20 -5 -20 -1 0 -3 -9 -4 -20 -2 -11 -6 -37 -10 -57 -3 -21 -9 -55 -12
-75 -3 -21 -7 -45 -9 -53 -2 -8 -7 -37 -11 -65 -3 -27 -8 -53 -10 -57 -3 -4
-7 -24 -10 -45 -2 -21 -6 -45 -9 -53 -2 -8 -7 -33 -10 -55 -2 -22 -7 -51 -10
-65 -23 -112 -37 -202 -39 -239 l-1 -24 1267 0 c698 0 1271 2 1274 5 3 4 7 17
9 30 4 35 15 101 20 128 3 14 8 45 11 70 2 25 6 52 9 60 6 20 15 77 20 120 2
19 4 35 5 35 1 0 3 9 5 20 1 11 5 36 8 55 7 45 16 98 22 130 6 32 12 73 20
130 3 25 8 52 10 60 2 8 7 35 11 60 3 25 8 54 10 65 2 11 6 36 9 55 3 19 8 51
11 70 4 19 8 49 11 65 2 17 7 41 9 55 6 28 10 57 19 115 8 58 14 97 20 125 3
14 8 45 11 70 3 25 7 52 9 60 3 8 7 33 10 55 3 22 8 51 11 65 4 14 8 43 10 65
2 22 8 59 14 82 5 22 12 65 15 93 3 29 7 55 9 59 2 3 7 29 10 56 4 28 11 73
16 100 11 58 19 105 26 155 2 19 6 44 8 55 9 48 20 131 18 138 -1 4 2 7 6 7 4
0 8 10 8 23 0 19 17 143 28 204 2 10 7 38 11 63 4 25 9 54 12 65 2 11 6 38 8
60 3 22 7 51 10 65 3 14 8 41 11 60 3 19 7 41 9 48 3 7 8 39 11 70 3 31 8 60
11 65 2 4 6 28 8 55 2 26 7 58 10 72 8 35 13 59 19 105 6 42 11 73 25 145 5
25 9 52 9 60 0 8 3 29 6 45 2 17 8 47 11 69 4 21 9 48 11 60 2 11 7 41 10 66
3 25 8 54 11 65 2 11 6 36 9 55 2 19 7 46 10 60 2 14 7 45 11 70 6 51 11 75
13 75 1 0 3 14 5 31 3 32 7 52 30 184 8 47 17 101 19 120 3 19 7 49 10 65 3
17 8 46 11 65 3 19 10 60 15 90 5 30 11 69 14 85 4 28 19 114 21 125 1 5 12
77 22 139 2 18 6 43 9 54 2 12 6 37 9 57 3 20 7 47 10 60 4 22 12 68 20 125 2
11 10 63 20 115 9 52 18 111 20 130 2 19 6 46 10 60 3 14 7 41 10 60 2 19 4
35 5 35 1 0 3 9 4 20 3 18 14 87 21 126 10 51 17 98 21 129 2 19 6 46 9 60 2
14 7 41 10 60 3 19 10 60 15 90 17 103 22 135 25 160 2 14 4 25 5 25 1 0 4 14
6 30 4 39 10 77 30 185 3 20 11 74 19 129 3 25 8 48 10 51 2 4 7 29 10 57 3
27 7 59 9 70 3 12 8 43 12 70 9 53 11 62 14 66 1 1 3 18 5 37 3 38 7 64 24
157 7 34 14 79 16 100 2 21 7 49 10 63 3 14 8 45 11 70 3 25 7 53 10 62 7 24
11 46 18 103 4 28 9 57 11 65 2 8 6 35 9 60 3 25 7 54 10 65 2 11 7 40 11 65
4 25 9 54 11 65 2 11 11 65 19 120 9 55 17 107 20 115 2 8 7 38 10 65 4 28 8
61 10 75 l4 25 -1917 0 -1917 0 -17 -35 c-10 -19 -18 -40 -18 -47 0 -7 -4 -13
-8 -13 -5 0 -9 -6 -9 -12 0 -7 -10 -34 -21 -61 -12 -26 -21 -50 -21 -52 0 -3
-7 -18 -15 -33 -14 -26 -70 -152 -72 -162 -1 -5 -16 -40 -54 -125 -10 -22 -38
-87 -63 -145 -25 -58 -56 -127 -68 -155 -12 -27 -23 -52 -24 -55 -1 -3 -9 -22
-18 -44 -9 -21 -17 -40 -17 -42 0 -2 -14 -34 -32 -71 -18 -38 -34 -77 -35 -88
-2 -10 -7 -22 -12 -25 -5 -3 -11 -14 -15 -26 -3 -11 -29 -72 -56 -134 -28 -63
-50 -120 -50 -127 0 -7 -4 -13 -10 -13 -5 0 -10 -5 -10 -11 0 -10 -57 -148
-110 -264 -15 -33 -38 -87 -51 -120 -13 -33 -27 -61 -31 -63 -5 -2 -8 -11 -8
-21 0 -9 -7 -27 -16 -39 -8 -12 -13 -22 -10 -22 3 0 -11 -35 -30 -77 -20 -43
-40 -87 -44 -98 -5 -11 -18 -40 -28 -65 -11 -25 -32 -74 -47 -110 -25 -61 -40
-93 -86 -197 -21 -46 -42 -95 -44 -103 0 -3 -14 -32 -29 -65 -16 -33 -29 -64
-30 -70 -1 -5 -7 -20 -14 -32 -7 -12 -12 -28 -12 -37 0 -8 -5 -16 -10 -18 -6
-2 -12 -13 -13 -26 0 -12 -5 -22 -9 -22 -4 0 -8 -5 -8 -10 0 -6 -9 -30 -21
-53 -11 -23 -22 -49 -24 -57 -1 -8 -16 -42 -31 -75 -15 -33 -28 -62 -29 -65 0
-3 -10 -25 -21 -50 -41 -88 -184 -425 -184 -434 0 -5 -7 -17 -15 -26 -8 -9
-16 -25 -18 -36 -2 -10 -13 -40 -25 -66 -35 -75 -57 -126 -102 -233 -24 -55
-50 -116 -58 -135 -9 -19 -15 -38 -14 -42 1 -5 -3 -8 -8 -8 -6 0 -10 -6 -10
-14 0 -13 -25 -72 -78 -186 -9 -19 -16 -38 -17 -41 0 -3 -12 -33 -27 -65 -14
-33 -33 -75 -41 -94 -9 -19 -27 -61 -41 -92 -14 -32 -22 -58 -18 -58 4 0 2 -4
-4 -8 -6 -4 -18 -25 -26 -47 -9 -22 -24 -58 -34 -80 -10 -22 -17 -43 -16 -47
1 -5 -2 -8 -8 -8 -5 0 -10 -6 -10 -14 0 -7 -12 -40 -27 -72 -15 -33 -28 -61
-28 -64 -1 -3 -8 -21 -17 -40 -21 -46 -108 -248 -143 -330 -15 -36 -33 -77
-41 -92 -8 -14 -14 -33 -14 -42 0 -9 -4 -16 -10 -16 -5 0 -10 -8 -10 -18 0
-10 -3 -22 -7 -26 -4 -3 -21 -41 -39 -84 -37 -86 -34 -93 -38 78 -1 47 -5 91
-9 97 -4 6 -3 14 3 18 6 4 8 10 5 15 -3 5 -8 63 -10 127 -6 162 -14 381 -21
548 -3 77 -7 198 -9 268 -1 71 -6 131 -9 134 -3 3 -1 14 5 24 5 11 6 19 2 19
-4 0 -9 39 -10 88 -4 245 -9 362 -15 362 -4 0 -3 13 2 29 4 16 6 32 3 35 -5 5
-13 201 -16 398 -1 60 -4 108 -7 108 -3 0 -6 51 -6 113 -1 111 -11 390 -19
582 -5 100 -13 316 -20 535 -2 63 -6 183 -9 265 -6 153 -11 285 -21 550 -3 83
-7 197 -10 255 -2 58 -7 179 -10 270 -3 91 -7 224 -10 295 -4 72 -7 182 -9
246 -2 64 -6 122 -10 127 -3 6 -2 13 3 16 5 4 6 19 2 34 -4 15 -7 51 -6 81 1
33 -3 55 -11 58 -17 6 -3713 9 -3750 3z"/>
<path d="M21480 18390 c-5 -3 -11 -25 -15 -50 -4 -25 -11 -67 -16 -95 -6 -27
-13 -61 -15 -75 -3 -14 -12 -58 -20 -99 -8 -40 -13 -76 -10 -79 3 -3 2 -10 -3
-16 -5 -6 -12 -29 -16 -51 -4 -22 -9 -53 -12 -70 -3 -16 -9 -37 -14 -46 -4 -9
-6 -19 -3 -21 2 -3 -2 -37 -11 -76 -8 -40 -17 -86 -20 -104 -4 -18 -10 -51
-15 -72 -5 -22 -7 -44 -4 -48 3 -4 1 -8 -4 -8 -5 0 -9 -8 -9 -17 1 -10 -5 -49
-13 -88 -7 -38 -15 -79 -16 -90 -1 -11 -3 -20 -4 -20 -1 0 -3 -9 -5 -20 -3
-11 -11 -54 -20 -95 -8 -41 -17 -88 -19 -105 -3 -16 -7 -41 -10 -55 -8 -34
-38 -191 -41 -210 -1 -8 -6 -33 -10 -55 -5 -22 -10 -49 -11 -60 -1 -11 -3 -21
-4 -22 -2 -2 -3 -6 -4 -10 -5 -20 -19 -91 -22 -113 -4 -22 -15 -77 -29 -150
-3 -14 -8 -40 -11 -59 -3 -18 -8 -43 -10 -55 -12 -56 -35 -175 -40 -206 -8
-46 -12 -65 -14 -65 -3 0 -9 -40 -12 -72 -1 -18 -5 -33 -8 -33 -3 0 -6 -8 -6
-17 -1 -17 -8 -58 -19 -113 -22 -109 -39 -207 -38 -217 0 -7 -2 -13 -6 -13 -4
0 -7 -8 -8 -17 -1 -27 -10 -80 -28 -163 -12 -57 -27 -139 -29 -165 -1 -11 -4
-24 -8 -30 -3 -5 -9 -34 -13 -64 -4 -30 -11 -66 -17 -80 -5 -14 -9 -27 -8 -29
1 -1 -1 -19 -4 -40 -4 -20 -9 -50 -11 -67 -3 -16 -20 -106 -39 -200 -19 -93
-32 -173 -30 -177 2 -4 -1 -10 -7 -13 -5 -4 -8 -13 -5 -20 2 -7 2 -16 -2 -19
-3 -4 -7 -14 -8 -24 -1 -9 -5 -33 -9 -52 -3 -19 -8 -46 -10 -60 -2 -14 -10
-59 -19 -100 -8 -41 -17 -86 -20 -100 -3 -14 -10 -50 -16 -80 -6 -30 -13 -68
-15 -85 -3 -16 -7 -41 -11 -55 -3 -14 -10 -45 -15 -70 -4 -25 -11 -58 -14 -75
-4 -16 -8 -41 -10 -55 -2 -14 -4 -25 -5 -25 -1 0 -3 -7 -5 -15 -7 -36 -16 -87
-19 -105 -3 -18 -13 -72 -23 -120 -2 -11 -6 -31 -9 -45 -5 -30 -13 -66 -20
-100 -2 -14 -7 -36 -9 -50 -9 -55 -35 -189 -43 -220 -3 -14 -7 -32 -8 -40 -7
-49 -17 -96 -20 -101 -2 -4 -6 -24 -9 -45 -3 -22 -7 -50 -10 -64 -3 -14 -8
-38 -11 -55 -2 -16 -9 -46 -14 -65 -5 -19 -11 -53 -15 -75 -3 -22 -7 -47 -10
-55 -2 -8 -6 -31 -9 -50 -5 -30 -18 -97 -62 -320 -4 -19 -8 -45 -8 -57 -1 -13
-3 -23 -6 -23 -3 0 -6 -8 -7 -17 -2 -27 -19 -122 -39 -208 -3 -12 -13 -68 -20
-110 -3 -16 -9 -49 -15 -73 -5 -23 -12 -59 -15 -78 -7 -42 -9 -54 -22 -111 -5
-23 -7 -44 -4 -47 2 -3 0 -11 -5 -18 -6 -7 -13 -33 -17 -58 -3 -25 -8 -58 -11
-75 -3 -16 -7 -39 -9 -50 -2 -11 -6 -33 -10 -50 -3 -16 -9 -40 -11 -52 -3 -13
-7 -31 -9 -40 -5 -24 -18 -103 -22 -128 -1 -11 -3 -20 -4 -20 -2 0 -10 -35
-15 -70 -3 -16 -7 -41 -10 -55 -12 -56 -16 -76 -20 -102 -2 -15 -6 -31 -8 -36
-3 -4 -8 -28 -11 -52 -3 -25 -8 -56 -12 -70 -3 -14 -7 -32 -8 -40 -1 -8 -5
-31 -9 -50 -4 -19 -9 -46 -11 -60 -3 -14 -5 -25 -6 -25 -1 0 -3 -12 -5 -28 -3
-22 -12 -67 -30 -147 0 -3 -5 -27 -10 -55 -5 -27 -9 -52 -10 -55 -4 -17 -16
-81 -20 -112 -5 -32 -3 -38 12 -39 84 -3 2605 0 2608 3 2 2 7 19 10 38 3 19 8
42 10 50 6 22 16 72 20 100 2 14 4 25 5 25 1 0 3 11 5 25 2 14 6 37 9 53 3 15
8 37 10 50 3 12 12 58 21 102 9 44 18 89 20 100 11 69 23 130 25 130 1 0 3 12
5 28 2 15 9 53 16 85 6 31 13 66 15 77 2 11 10 49 17 85 12 58 15 74 18 83 1
2 5 29 13 73 2 17 12 69 21 115 9 46 19 93 20 104 2 11 6 31 10 45 3 14 8 40
11 59 7 39 9 50 22 111 6 25 13 61 16 80 9 56 16 93 23 125 9 38 10 43 13 53
1 4 2 11 1 15 -1 5 3 25 8 45 5 20 12 53 15 72 6 37 21 118 31 160 3 14 8 39
10 55 3 17 8 41 11 55 3 14 7 34 9 45 2 11 6 29 8 40 3 11 8 40 13 65 4 25 8
47 9 50 3 9 15 74 19 100 3 14 5 25 6 25 2 0 7 25 14 72 6 42 11 66 25 133 6
25 13 59 15 75 7 46 16 87 26 123 5 18 7 41 5 50 -3 16 14 17 195 17 122 -1
196 3 193 9 -4 5 -1 6 8 0 19 -12 479 -13 472 0 -4 5 -1 6 8 0 19 -12 479 -13
472 0 -4 5 -1 6 8 0 19 -12 479 -13 472 0 -4 5 -1 6 8 0 17 -11 479 -13 485
-2 3 5 11 5 17 1 7 -4 191 -8 409 -8 428 0 405 -3 415 50 2 11 12 65 23 120
10 55 22 115 25 134 3 19 7 37 9 40 4 6 18 96 19 119 0 6 3 12 6 12 3 0 7 12
7 28 1 15 4 37 7 48 3 12 8 38 11 58 3 20 10 54 15 76 5 22 7 40 5 40 -3 0 0
9 6 20 6 11 11 36 12 55 1 20 5 38 10 41 4 3 6 9 4 13 -3 4 0 27 5 52 6 24 12
55 14 69 2 14 13 75 25 135 12 61 23 117 25 125 1 8 5 31 9 50 3 19 8 46 11
60 3 14 8 39 11 55 6 37 11 63 18 95 12 54 16 77 22 120 3 25 9 49 12 55 4 5
7 21 8 35 2 14 10 58 18 98 9 41 14 78 10 83 -3 5 -1 9 4 9 5 0 9 6 9 13 2 26
13 94 24 145 7 28 10 54 7 57 -2 3 -710 5 -1572 5 l-1568 0 6 28 c5 24 11 54
22 117 5 30 12 60 14 60 1 0 3 9 4 20 2 18 6 40 22 120 6 33 12 59 18 85 3 14
8 36 10 50 3 14 8 36 11 50 3 14 7 39 9 55 3 17 12 64 21 105 9 41 19 86 21
100 2 14 9 48 14 75 6 28 12 61 15 75 20 106 27 140 35 175 6 22 12 53 15 69
2 16 6 30 9 33 2 2 868 4 1925 4 1886 0 1920 1 1926 20 4 10 8 31 11 46 2 16
7 39 9 53 3 14 7 36 10 50 5 27 21 106 31 155 3 17 7 41 8 55 2 14 6 36 9 50
4 14 9 36 11 50 3 21 54 291 71 373 3 15 7 39 10 55 3 15 8 38 10 52 11 52 15
75 21 114 3 22 7 43 9 46 2 3 6 21 9 40 3 19 11 62 17 95 6 33 11 66 11 73 1
6 5 12 10 12 5 0 7 4 4 9 -4 5 1 42 9 81 8 39 13 76 9 81 -3 5 -1 9 4 9 5 0 9
6 9 13 0 11 3 25 18 112 3 17 12 64 20 105 9 41 17 86 20 100 3 14 7 39 10 55
2 17 7 41 10 55 3 14 8 36 10 50 2 14 7 37 10 53 13 67 13 77 2 78 -41 4
-6460 3 -6467 -1z"/>
</g>
</svg>
