<svg width="64" height="64" viewBox="0 0 64 64" fill="none" xmlns="http://www.w3.org/2000/svg">
<rect width="64" height="64" fill="#639AA9"/>
<path d="M23.45 42H3L12.5497 24H33L23.45 42Z" fill="white"/>
<path d="M43.039 30.7923C40.7664 30.7923 39.6051 32.6091 39.6051 35.3459C39.6051 37.933 40.8608 39.8749 43.039 39.8749C45.5023 39.8749 46.4259 37.5855 46.4259 35.3459C46.4242 33.0076 45.2635 30.7923 43.0383 30.7923M37.0003 24H39.6998V30.5683H39.7476C40.4818 29.3245 42.0209 28.553 43.3946 28.553C47.2543 28.553 49.1258 31.6393 49.1258 35.3967C49.1258 38.8541 47.4683 42.1138 43.8443 42.1138C42.1866 42.1138 40.4104 41.6916 39.6048 39.9992H39.558V41.7666H37V24.0003L37.0003 24" fill="white"/>
<path d="M59.2725 33.1655C59.057 31.5906 57.9566 30.7402 56.449 30.7402C55.0367 30.7402 53.051 31.5155 53.051 35.4401C53.051 37.5901 53.9599 39.8653 56.3293 39.8653C57.9083 39.8653 59.0085 38.7641 59.2725 36.9141H62C61.4973 40.2638 59.5118 42.1138 56.3293 42.1138C52.4527 42.1138 50.3234 39.2396 50.3234 35.4401C50.3234 31.5408 52.3573 28.491 56.425 28.491C59.2962 28.491 61.7376 29.9907 62 33.1655H59.2768H59.2725" fill="white"/>
</svg>
