<svg width="64" height="64" viewBox="0 0 64 64" fill="none" xmlns="http://www.w3.org/2000/svg">
<g clip-path="url(#clip0_1116_228)">
<path d="M31.9998 0C14.3272 0 0 14.3271 0 32.0002C0 49.674 14.3272 64 31.9998 64C49.6744 64 64 49.674 64 32.0002C64 14.3283 49.6744 0.00152851 31.9994 0.00152851L31.9998 0ZM46.6747 46.1535C46.1015 47.0935 44.8711 47.3916 43.9311 46.8145C36.4179 42.2252 26.9597 41.1858 15.8209 43.7308C14.7475 43.9753 13.6776 43.3028 13.433 42.229C13.1873 41.1552 13.8572 40.0853 14.9332 39.8407C27.1228 37.0557 37.5787 38.2549 46.0136 43.4098C46.9537 43.9868 47.2517 45.2134 46.6747 46.1535ZM50.5914 37.4402C49.8692 38.6141 48.3331 38.9847 47.16 38.2625C38.5585 32.9754 25.4468 31.4442 15.2729 34.5326C13.9535 34.9311 12.5599 34.1875 12.1594 32.8703C11.762 31.5508 12.506 30.1599 13.8232 29.7586C25.4446 26.2323 39.8921 27.9405 49.7699 34.0106C50.943 34.7328 51.3136 36.2686 50.5914 37.4402ZM50.9277 28.3669C40.6143 22.241 23.5985 21.6778 13.7517 24.6664C12.1705 25.146 10.4983 24.2533 10.0192 22.6721C9.53999 21.09 10.4319 19.419 12.0142 18.9383C23.3177 15.5068 42.1084 16.1698 53.9824 23.2189C55.4077 24.063 55.8739 25.8999 55.0294 27.3203C54.1887 28.7425 52.3469 29.2114 50.9292 28.3669H50.9277Z" fill="#1ED760"/>
</g>
<defs>
<clipPath id="clip0_1116_228">
<rect width="64" height="64" fill="white"/>
</clipPath>
</defs>
</svg>
