<svg width="64" height="64" viewBox="0 0 64 64" fill="none" xmlns="http://www.w3.org/2000/svg">
<path d="M58 45.4053C58 55.6905 49.8614 64 39.5623 64C29.3638 64 21.2252 55.8936 21.2252 45.4053C21.2252 40.4696 23.0759 36.104 26.0185 32.8317L13.5512 45.4053L7 38.8061L21.0626 24.78C22.9675 22.8588 23.951 20.3675 23.951 17.6107V0H33.1737V17.6107C33.1737 23.015 31.2688 27.5836 27.5595 31.3245L27.1491 31.7384C30.3937 28.7239 34.8231 26.9042 39.5623 26.9042C50.0162 26.912 58 35.2761 58 45.4053ZM49.6523 45.4053C49.6523 39.8995 45.1222 35.4323 39.5545 35.4323C33.9403 35.4323 29.5651 40.1103 29.5651 45.4053C29.5651 50.8564 33.9945 55.4797 39.5545 55.4797C45.3236 55.4875 49.6523 50.7549 49.6523 45.4053Z" fill="#01FF95"/>
</svg>
