<svg width="64" height="64" viewBox="0 0 64 64" fill="none" xmlns="http://www.w3.org/2000/svg">
<g clip-path="url(#clip0_1116_225)">
<path d="M32 0C14.328 0 0 14.328 0 32C0 49.672 14.328 64 32 64C49.672 64 64 49.672 64 32C64 14.328 49.672 0 32 0ZM41.7707 42.3707C34.376 42.3707 31.808 39.0373 30.4427 34.888L29.0693 30.6107C28.0427 27.4907 26.8453 25.0533 23.0853 25.0533C20.4747 25.0533 17.8213 26.936 17.8213 32.1947C17.8213 36.2987 19.9173 38.8667 22.872 38.8667C26.2027 38.8667 28.4267 36.384 28.4267 36.384L29.8 40.1067C29.8 40.1067 27.4907 42.3733 22.656 42.3733C16.6693 42.3707 13.3333 38.864 13.3333 32.3627C13.3333 25.6053 16.6693 21.6293 22.952 21.6293C28.64 21.6293 31.5067 23.6827 33.3013 29.24L34.7147 33.5173C35.7413 36.64 37.536 38.9067 41.856 38.9067C44.7653 38.9067 46.304 38.2667 46.304 36.6827C46.304 35.4427 45.576 34.544 43.3973 34.032L40.488 33.3493C36.9387 32.4933 35.5253 30.656 35.5253 27.7467C35.5253 23.0853 39.2907 21.632 43.136 21.632C47.504 21.632 50.1493 23.2133 50.4933 27.064L46.216 27.576C46.048 25.736 44.936 24.9653 42.88 24.9653C40.9973 24.9653 39.8453 25.8213 39.8453 27.2747C39.8453 28.5573 40.4 29.328 42.2827 29.7547L45.016 30.3547C48.6987 31.2107 50.6667 33.0053 50.6667 36.4693C50.6667 40.744 47.0747 42.3707 41.7707 42.3707V42.3707Z" fill="#D92323"/>
</g>
<defs>
<clipPath id="clip0_1116_225">
<rect width="64" height="64" fill="white"/>
</clipPath>
</defs>
</svg>
