<?xml version="1.0" encoding="utf-8"?>
<!-- Generator: Adobe Illustrator 24.1.3, SVG Export Plug-In . SVG Version: 6.00 Build 0)  -->
<svg version="1.1" id="Layer_1" xmlns="http://www.w3.org/2000/svg" xmlns:xlink="http://www.w3.org/1999/xlink" x="0px" y="0px"
	 viewBox="0 0 707 226" style="enable-background:new 0 0 707 226;" xml:space="preserve">
<style type="text/css">
	.st0{fill:#8FFFFF;}
	.st1{enable-background:new    ;}
	.st2{fill:#F5628D;}
	.st3{fill:#FF9D00;}
	.st4{fill:#FAD000;}
</style>
<g>
	<polygon class="st0" points="27.86,218.56 36.98,176.1 230.89,176.1 270.24,5.96 364.84,5.96 370.26,152.44 433.33,6.64 
		529.28,6.64 494.7,218.56 430.95,218.56 457.06,71.4 394.67,215.5 322.45,215.5 316.01,69.37 284.14,218.56 	"/>
	<g class="st1">
		<path class="st0" d="M536.93,6.64H699l-10.17,53.57h-96.29l-6.1,30.52h78.66l-10.17,52.89h-78.66l-14.58,74.93H495.9L536.93,6.64z
			"/>
	</g>
	<polygon class="st2" points="259.9,50.66 64.07,50.66 54.94,93.11 250.08,93.11 	"/>
	<polygon class="st3" points="250.19,92.64 55.05,92.64 45.92,135.1 240.37,135.1 	"/>
	<polygon class="st4" points="230.89,176.1 240.55,134.32 46.09,134.32 37.11,176.1 	"/>
</g>
</svg>
