<svg width="64" height="64" viewBox="0 0 64 64" fill="none" xmlns="http://www.w3.org/2000/svg">
<g clip-path="url(#clip0_1116_227)">
<path d="M32 64C49.6731 64 64 49.6731 64 32C64 14.3269 49.6731 0 32 0C14.3269 0 0 14.3269 0 32C0 49.6731 14.3269 64 32 64Z" fill="#FF0000"/>
<path d="M32 16.4783C40.537 16.4783 47.5217 23.4261 47.5217 32C47.5217 40.5739 40.5739 47.5217 32 47.5217C23.4261 47.5217 16.4783 40.5739 16.4783 32C16.4783 23.4261 23.463 16.4783 32 16.4783ZM32 15C22.613 15 15 22.613 15 32C15 41.387 22.613 49 32 49C41.387 49 49 41.387 49 32C49 22.613 41.387 15 32 15Z" fill="white"/>
<path d="M26 40L40 31.6522L26 24V40Z" fill="white"/>
</g>
<defs>
<clipPath id="clip0_1116_227">
<rect width="64" height="64" fill="white"/>
</clipPath>
</defs>
</svg>
