<svg width="118" height="38" viewBox="0 0 118 38" fill="none" xmlns="http://www.w3.org/2000/svg">
<path d="M0.28418 37.1487L1.87245 29.7542H35.6425L42.4954 0.123779H58.9702L59.9142 25.6337L70.898 0.242203H87.608L81.5858 37.1487H70.4835L75.0306 11.5204L64.1652 36.6158H51.5879L50.4664 11.1668L44.9161 37.1487H0.28418Z" fill="#8FFFFF"/>
<path d="M88.9404 0.242188H117.165L115.394 9.57156H98.6251L97.5627 14.8867H111.262L109.49 24.0977H95.7916L93.2524 37.1469H81.7949L88.9404 0.242188Z" fill="#8FFFFF"/>
<path d="M40.6949 7.90845H6.59051L5.00049 15.3012H38.9847L40.6949 7.90845Z" fill="#F5628D"/>
<path d="M39.0034 15.2195H5.01922L3.4292 22.614H37.2932L39.0034 15.2195Z" fill="#FF9D00"/>
<path d="M35.6424 29.7541L37.3247 22.478H3.45891L1.89502 29.7541H35.6424Z" fill="#FAD000"/>
</svg>
