<svg width="117" height="38" viewBox="0 0 117 38" fill="none" xmlns="http://www.w3.org/2000/svg">
<path d="M0 37.0249L1.58828 29.6304H35.3583L42.2112 0H58.6861L59.63 25.5099L70.6138 0.118424H87.3238L81.3016 37.0249H70.1993L74.7465 11.3966L63.8811 36.492H51.3037L50.1822 11.043L44.6319 37.0249H0Z" fill="white"/>
<path d="M88.6562 0.118408H116.881L115.11 9.44778H98.3409L97.2786 14.7629H110.977L109.206 23.9739H95.5074L92.9683 37.0232H81.5107L88.6562 0.118408Z" fill="white"/>
<path d="M40.4107 7.78467H6.30633L4.71631 15.1775H38.7005L40.4107 7.78467Z" fill="#F5628D"/>
<path d="M38.7193 15.0957H4.73504L3.14502 22.4902H37.0091L38.7193 15.0957Z" fill="#FF9D00"/>
<path d="M35.3582 29.6304L37.0405 22.3542H3.17473L1.61084 29.6304H35.3582Z" fill="#FAD000"/>
</svg>
