<svg width="142" height="44" viewBox="0 0 142 44" fill="none" xmlns="http://www.w3.org/2000/svg">
<path d="M0 43.7749L1.92961 35.0323H42.9571L51.2828 0H71.2983L72.4451 30.1606L85.7894 0.140014H106.091L98.7741 43.7749H85.2859L90.8102 13.4743L77.6097 43.1448H62.3294L60.9668 13.0563L54.2238 43.7749H0Z" fill="#28284F"/>
<path d="M107.709 0.139648H142L139.848 11.1699H119.475L118.185 17.454H134.827L132.676 28.3442H116.033L112.948 43.7725H99.0281L107.709 0.139648Z" fill="#28284F"/>
<path d="M49.095 9.20361H7.66122L5.72949 17.9442H47.0172L49.095 9.20361Z" fill="#F5628D"/>
<path d="M47.0408 17.8477H5.75302L3.82129 26.5903H44.963L47.0408 17.8477Z" fill="#FF9D00"/>
<path d="M42.957 35.0323L45.0009 26.4297H3.85702L1.95703 35.0323H42.957Z" fill="#8FFFFF"/>
</svg>
